<svg width="26" height="26" viewBox="0 0 26 26" fill="none" xmlns="http://www.w3.org/2000/svg">
<path d="M13 0.974609C6.36926 0.974609 0.973755 6.36861 0.973755 13.0001C0.973755 19.6316 6.36926 25.0256 13 25.0256C19.6308 25.0256 25.0263 19.6316 25.0263 13.0001C25.0263 6.36861 19.6308 0.974609 13 0.974609ZM13 24.2246C6.811 24.2246 1.77625 19.1891 1.77625 13.0001C1.77625 6.81111 6.811 1.77561 13 1.77561C19.189 1.77561 24.2238 6.81111 24.2238 13.0001C24.2238 19.1891 19.189 24.2246 13 24.2246Z" fill="black"/>
<path d="M10.1172 14.0361H10.1143C10.1158 14.0357 10.1175 14.0356 10.1191 14.0352L10.1172 14.0361ZM18.5361 9.66406L18.4912 9.66992L18.4082 9.49707C18.4976 9.47048 18.586 9.44144 18.6738 9.41016L18.5361 9.66406Z" fill="black" stroke="black" stroke-width="1.5"/>
</svg>
